<?xml version="1.0" encoding="UTF-8" standalone="no"?>
<svg
   xmlns:dc="http://purl.org/dc/elements/1.1/"
   xmlns:cc="http://creativecommons.org/ns#"
   xmlns:rdf="http://www.w3.org/1999/02/22-rdf-syntax-ns#"
   xmlns:svg="http://www.w3.org/2000/svg"
   xmlns="http://www.w3.org/2000/svg"
   xmlns:sodipodi="http://sodipodi.sourceforge.net/DTD/sodipodi-0.dtd"
   xmlns:inkscape="http://www.inkscape.org/namespaces/inkscape"
   id="svg2980"
   version="1.1"
   inkscape:version="0.92.5 (2060ec1f9f, 2020-04-08)"
   sodipodi:docname="scalable-cropped.svg"
   viewBox="56.23 16.98 635.47 634.85">
  <defs
     id="defs2982">
    <inkscape:perspective
       sodipodi:type="inkscape:persp3d"
       inkscape:vp_x="0 : 526.18109 : 1"
       inkscape:vp_y="0 : 1000 : 0"
       inkscape:vp_z="744.09448 : 526.18109 : 1"
       inkscape:persp3d-origin="372.04724 : 350.78739 : 1"
       id="perspective2988" />
    <inkscape:perspective
       id="perspective2955"
       inkscape:persp3d-origin="0.5 : 0.33333333 : 1"
       inkscape:vp_z="1 : 0.5 : 1"
       inkscape:vp_y="0 : 1000 : 0"
       inkscape:vp_x="0 : 0.5 : 1"
       sodipodi:type="inkscape:persp3d" />
    <linearGradient
       id="linearGradient3431">
      <stop
         id="stop3433"
         offset="0"
         style="stop-color:#3d3d3d;stop-opacity:1;" />
      <stop
         id="stop3435"
         offset="1"
         style="stop-color:#000000;stop-opacity:0.11400651;" />
    </linearGradient>
    <linearGradient
       id="linearGradient3312">
      <stop
         style="stop-color:#c7f994;stop-opacity:1;"
         offset="0"
         id="stop3314" />
      <stop
         style="stop-color:#87cf3e;stop-opacity:1;"
         offset="1"
         id="stop3316" />
    </linearGradient>
  </defs>
  <sodipodi:namedview
     id="base"
     pagecolor="#ffffff"
     bordercolor="#666666"
     borderopacity="1.0"
     inkscape:pageopacity="0.0"
     inkscape:pageshadow="2"
     inkscape:zoom="0.35"
     inkscape:cx="-208.0404"
     inkscape:cy="320.87426"
     inkscape:document-units="px"
     inkscape:current-layer="layer1"
     showgrid="false"
     showborder="false"
     inkscape:showpageshadow="false"
     inkscape:window-width="952"
     inkscape:window-height="499"
     inkscape:window-x="0"
     inkscape:window-y="28"
     inkscape:window-maximized="0"
     inkscape:snap-nodes="false"
     inkscape:snap-global="false" />
  <metadata
     id="metadata2985">
    <rdf:RDF>
      <cc:Work
         rdf:about="">
        <dc:format>image/svg+xml</dc:format>
        <dc:type
           rdf:resource="http://purl.org/dc/dcmitype/StillImage" />
        <dc:title />
      </cc:Work>
    </rdf:RDF>
  </metadata>
  <g
     inkscape:label="Layer 1"
     inkscape:groupmode="layer"
     id="layer1"
     transform="translate(-1.6967481,-160.82649)">
    <path
       style="opacity:1;fill:#d8dee9;fill-opacity:1;stroke:none;stroke-width:0px;stroke-linecap:round;stroke-linejoin:round;stroke-miterlimit:4;stroke-dasharray:none;stroke-opacity:1"
       d="m 396.28371,177.84331 c -59.93629,-0.66161 -119.50874,20.66458 -163.84666,61.39884 -83.2327,76.46797 -96.91495,211.65715 -19.03921,296.10787 64.68857,70.15025 178.88528,81.60517 249.98872,15.78406 58.75501,-54.39006 68.32103,-150.27458 13.04635,-209.74591 -45.40988,-48.85775 -125.35759,-56.75484 -174.72009,-10.68367 -40.2869,37.60058 -48.47065,105.3903 -8.6961,144.31593 32.79988,32.09974 83.27828,29.21162 116.31375,-1.89613 v 0 c -28.23321,27.12834 -73.70447,21.22385 -99.37852,-5.64026 -30.89698,-32.32917 -26.06692,-83.31174 4.82014,-112.67876 37.13127,-35.3038 95.72368,-29.70427 129.40717,5.89798 40.43824,42.74186 33.9231,110.22238 -7.18717,148.93351 -49.27499,46.39955 -127.0982,38.81859 -171.64601,-8.70476 -53.29811,-56.8582 -44.47736,-146.6395 10.48969,-197.94135 65.63271,-61.25643 169.26407,-50.98726 228.35837,12.59365 70.40981,75.75581 58.46851,195.30909 -15.05119,263.36706 -10.92513,10.11358 -22.64374,18.75228 -34.93104,25.95038 C 368.20034,655.2882 254.08116,635.36865 185.53317,561.03309 104.60615,473.27348 106.38546,341.46583 172.98696,249.37825 100.22243,309.51028 58.049714,398.94835 57.949806,493.34387 57.948797,668.37868 199.84277,810.27271 374.87751,810.27162 549.91064,810.27028 691.80197,668.37703 691.80099,493.34387 691.75088,331.35258 569.55062,195.47278 408.47206,178.30025 c -4.06125,-0.24778 -8.12577,-0.41215 -12.18835,-0.4572 z"
       id="path815"
       inkscape:connector-curvature="0"
       sodipodi:nodetypes="ccsscsscccsscsscccscccccc"
       inkscape:export-xdpi="133.39935"
       inkscape:export-ydpi="133.39935"
       ne="0.3506522569719044" />
    <path
       style="opacity: 1; fill: rgb(179, 187, 203); fill-opacity: 1; stroke: none; stroke-width: 0px; stroke-linecap: round; stroke-linejoin: round; stroke-miterlimit: 4; stroke-dasharray: none; stroke-opacity: 1;"
       d="m 651.83974,339.32391 c 4.55098,22.4003 6.74105,45.2362 6.84967,68.08984 -6.6e-4,194.19081 -158.1296,351.61317 -353.19118,351.61309 -49.56107,-0.0967 -98.40666,-10.82918 -143.63239,-31.01055 58.43426,54.09988 134.95291,84.47209 214.58542,84.61867 175.03304,10e-4 316.92641,-141.89035 316.92774,-316.92339 -0.13686,-54.84335 -14.34762,-108.75968 -41.53926,-156.38766 z"
       id="path815-9"
       inkscape:connector-curvature="0"
       sodipodi:nodetypes="ccccccc"
       inkscape:export-xdpi="133.39935"
       inkscape:export-ydpi="133.39935"
       ne="0.28631667277929906" />
  </g>
</svg>
